<?xml version="1.0" standalone="no"?>
<!DOCTYPE svg PUBLIC "-//W3C//DTD SVG 20010904//EN"
 "http://www.w3.org/TR/2001/REC-SVG-20010904/DTD/svg10.dtd">
<svg version="1.0" xmlns="http://www.w3.org/2000/svg"
 width="460.000000pt" height="460.000000pt" viewBox="0 0 460.000000 460.000000"
 preserveAspectRatio="xMidYMid meet">
<metadata>
Created by potrace 1.14, written by Peter Selinger 2001-2017
</metadata>
<g transform="translate(0.000000,460.000000) scale(0.100000,-0.100000)"
fill="#000000" stroke="none">
<path d="M1425 3856 c-3 -12 -4 -246 -2 -521 l2 -500 182 0 c100 0 185 -3 189
-7 4 -5 7 -63 6 -131 l-1 -122 32 0 c18 0 38 4 45 8 6 5 12 4 12 -1 0 -5 7 -9
15 -9 10 0 14 6 10 16 -4 12 -1 11 9 -2 12 -15 18 -16 35 -8 14 8 22 8 27 0 4
-8 9 -7 15 2 5 8 9 9 9 3 0 -13 31 -14 48 -1 8 6 12 6 12 -1 0 -6 12 -9 28 -7
21 3 30 -2 39 -21 6 -13 7 -22 2 -18 -5 3 -9 -13 -9 -36 0 -30 3 -39 13 -34
10 6 10 4 0 -7 -8 -8 -13 -41 -13 -85 l0 -73 520 1 520 1 0 517 0 518 -137 0
c-76 0 -152 1 -169 1 l-31 1 1 139 1 139 -177 0 c-172 0 -204 4 -193 22 3 5 1
11 -5 15 -6 4 -7 12 -3 18 10 16 10 137 0 144 -4 2 -2 12 5 21 11 13 11 14 -2
7 -13 -7 -13 -6 -2 7 10 13 10 17 -3 22 -8 3 -15 0 -15 -7 0 -7 -3 -8 -8 -2
-9 13 -282 14 -275 1 4 -5 0 -6 -8 -1 -19 12 -119 12 -119 0 0 -7 -3 -7 -8 0
-4 6 -55 10 -117 10 -62 0 -113 -4 -117 -10 -5 -7 -8 -7 -8 0 0 6 -32 10 -75
10 -43 0 -75 -4 -75 -10 0 -6 -3 -6 -8 0 -9 14 -145 13 -154 0 -5 -6 -8 -6 -8
1 0 20 -30 11 -35 -10z m136 -29 c-10 -9 -11 -8 -5 6 3 10 9 15 12 12 3 -3 0
-11 -7 -18z m560 -4 c-12 -20 -14 -14 -5 12 4 9 9 14 11 11 3 -2 0 -13 -6 -23z
m84 18 c3 -5 2 -12 -3 -15 -5 -3 -9 1 -9 9 0 17 3 19 12 6z m-735 -41 c0 -5
-2 -10 -4 -10 -3 0 -8 5 -11 10 -3 6 -1 10 4 10 6 0 11 -4 11 -10z m165 0 c3
-6 -1 -7 -9 -4 -18 7 -21 14 -7 14 6 0 13 -4 16 -10z m160 0 c3 -6 -1 -7 -9
-4 -18 7 -21 14 -7 14 6 0 13 -4 16 -10z m606 -33 c-10 -9 -11 -8 -5 6 3 10 9
15 12 12 3 -3 0 -11 -7 -18z m-526 -7 c-3 -5 -12 -10 -18 -10 -7 0 -6 4 3 10
19 12 23 12 15 0z m400 0 c3 -6 -1 -7 -9 -4 -18 7 -21 14 -7 14 6 0 13 -4 16
-10z m-792 -15 c-3 -9 -8 -14 -10 -11 -3 3 -2 9 2 15 9 16 15 13 8 -4z m484 0
c0 -8 -4 -12 -9 -9 -5 3 -6 10 -3 15 9 13 12 11 12 -6z m83 -25 c0 -5 -5 -10
-11 -10 -5 0 -7 5 -4 10 3 6 8 10 11 10 2 0 4 -4 4 -10z m-369 -57 c-12 -20
-14 -14 -5 12 4 9 9 14 11 11 3 -2 0 -13 -6 -23z m164 18 c3 -5 2 -12 -3 -15
-5 -3 -9 1 -9 9 0 17 3 19 12 6z m-100 -89 c-3 -3 -11 0 -18 7 -9 10 -8 11 6
5 10 -3 15 -9 12 -12z m-184 -65 c-10 -9 -11 -8 -5 6 3 10 9 15 12 12 3 -3 0
-11 -7 -18z m83 7 c3 -8 2 -12 -4 -9 -6 3 -10 10 -10 16 0 14 7 11 14 -7z
m106 -8 c0 -2 -7 -7 -16 -10 -8 -3 -12 -2 -9 4 6 10 25 14 25 6z m1034 -4 c3
-5 -1 -9 -9 -9 -8 0 -12 4 -9 9 3 4 7 8 9 8 2 0 6 -4 9 -8z m-257 -17 c0 -8
-4 -12 -9 -9 -5 3 -6 10 -3 15 9 13 12 11 12 -6z m148 -65 c-3 -5 -12 -10 -18
-10 -7 0 -6 4 3 10 19 12 23 12 15 0z m80 0 c3 -6 -1 -7 -9 -4 -18 7 -21 14
-7 14 6 0 13 -4 16 -10z m-1187 -25 c-3 -3 -9 2 -12 12 -6 14 -5 15 5 6 7 -7
10 -15 7 -18z m953 -48 c-10 -9 -11 -8 -5 6 3 10 9 15 12 12 3 -3 0 -11 -7
-18z m-971 -45 c0 -5 -7 -9 -15 -9 -8 0 -12 4 -9 9 3 4 9 8 15 8 5 0 9 -4 9
-8z m64 0 c2 -4 -4 -8 -14 -8 -10 0 -16 4 -14 8 3 4 9 8 14 8 5 0 11 -4 14 -8z
m61 -2 c3 -6 -1 -7 -9 -4 -18 7 -21 14 -7 14 6 0 13 -4 16 -10z m70 -48 c-3
-3 -11 0 -18 7 -9 10 -8 11 6 5 10 -3 15 -9 12 -12z m-184 -65 c-10 -9 -11 -8
-5 6 3 10 9 15 12 12 3 -3 0 -11 -7 -18z m83 7 c3 -8 2 -12 -4 -9 -6 3 -10 10
-10 16 0 14 7 11 14 -7z m1357 -7 c-10 -9 -11 -8 -5 6 3 10 9 15 12 12 3 -3 0
-11 -7 -18z m-1251 -1 c0 -2 -7 -7 -16 -10 -8 -3 -12 -2 -9 4 6 10 25 14 25 6z
m1165 -6 c3 -6 -1 -7 -9 -4 -18 7 -21 14 -7 14 6 0 13 -4 16 -10z m213 -25
c-3 -3 -9 2 -12 12 -6 14 -5 15 5 6 7 -7 10 -15 7 -18z m-1560 -80 c-3 -3 -9
2 -12 12 -6 14 -5 15 5 6 7 -7 10 -15 7 -18z m1517 -15 c3 -5 1 -10 -4 -10 -6
0 -11 5 -11 10 0 6 2 10 4 10 3 0 8 -4 11 -10z m-140 -48 c-3 -3 -11 0 -18 7
-9 10 -8 11 6 5 10 -3 15 -9 12 -12z m-1455 -28 c0 -8 -19 -13 -24 -6 -3 5 1
9 9 9 8 0 15 -2 15 -3z m60 2 c0 -3 -4 -8 -10 -11 -5 -3 -10 -1 -10 4 0 6 5
11 10 11 6 0 10 -2 10 -4z m60 0 c0 -3 -4 -8 -10 -11 -5 -3 -10 -1 -10 4 0 6
5 11 10 11 6 0 10 -2 10 -4z m60 -6 c0 -5 -2 -10 -4 -10 -3 0 -8 5 -11 10 -3
6 -1 10 4 10 6 0 11 -4 11 -10z m70 4 c0 -8 -19 -13 -24 -6 -3 5 1 9 9 9 8 0
15 -2 15 -3z m-75 -52 c-3 -3 -11 0 -18 7 -9 10 -8 11 6 5 10 -3 15 -9 12 -12z
m1420 -31 c-9 -8 -36 -10 -30 -2 2 4 11 8 20 8 8 0 13 -3 10 -6z m-1602 -56
c-3 -9 -8 -14 -10 -11 -3 3 -2 9 2 15 9 16 15 13 8 -4z m244 0 c0 -8 -4 -12
-9 -9 -5 3 -6 10 -3 15 9 13 12 11 12 -6z m-117 -5 c0 -5 -2 -10 -4 -10 -3 0
-8 5 -11 10 -3 6 -1 10 4 10 6 0 11 -4 11 -10z m290 -54 c0 -2 -8 -10 -17 -17
-16 -13 -17 -12 -4 4 13 16 21 21 21 13z m1015 -6 c-3 -5 -12 -10 -18 -10 -7
0 -6 4 3 10 19 12 23 12 15 0z m0 -80 c3 -6 -1 -7 -9 -4 -18 7 -21 14 -7 14 6
0 13 -4 16 -10z m-912 -15 c-3 -9 -8 -14 -10 -11 -3 3 -2 9 2 15 9 16 15 13 8
-4z m1125 -10 c-3 -3 -9 2 -12 12 -6 14 -5 15 5 6 7 -7 10 -15 7 -18z m-1253
-55 c3 -6 -1 -7 -9 -4 -18 7 -21 14 -7 14 6 0 13 -4 16 -10z m79 2 c3 -5 -1
-9 -9 -9 -8 0 -12 4 -9 9 3 4 7 8 9 8 2 0 6 -4 9 -8z m1047 -75 c-10 -9 -11
-8 -5 6 3 10 9 15 12 12 3 -3 0 -11 -7 -18z m-86 -7 c3 -6 -1 -7 -9 -4 -18 7
-21 14 -7 14 6 0 13 -4 16 -10z m213 -25 c-3 -3 -9 2 -12 12 -6 14 -5 15 5 6
7 -7 10 -15 7 -18z m-607 -48 c-10 -9 -11 -8 -5 6 3 10 9 15 12 12 3 -3 0 -11
-7 -18z m82 -22 c-3 -9 -8 -14 -10 -11 -3 3 -2 9 2 15 9 16 15 13 8 -4z m-313
-21 c0 -8 -19 -13 -24 -6 -3 5 1 9 9 9 8 0 15 -2 15 -3z m480 2 c0 -3 -4 -8
-10 -11 -5 -3 -10 -1 -10 4 0 6 5 11 10 11 6 0 10 -2 10 -4z m315 -6 c3 -5 1
-10 -4 -10 -6 0 -11 5 -11 10 0 6 2 10 4 10 3 0 8 -4 11 -10z m-721 -26 c3 -8
2 -12 -4 -9 -6 3 -10 10 -10 16 0 14 7 11 14 -7z m481 7 c3 -5 2 -12 -3 -15
-5 -3 -9 1 -9 9 0 17 3 19 12 6z m-620 -29 c-3 -3 -11 0 -18 7 -9 10 -8 11 6
5 10 -3 15 -9 12 -12z m720 0 c-3 -3 -11 0 -18 7 -9 10 -8 11 6 5 10 -3 15 -9
12 -12z m-417 -17 c-3 -3 -9 2 -12 12 -6 14 -5 15 5 6 7 -7 10 -15 7 -18z
m106 -13 c3 -5 -1 -9 -9 -9 -8 0 -15 4 -15 9 0 4 4 8 9 8 6 0 12 -4 15 -8z
m487 -15 c-10 -9 -11 -8 -5 6 3 10 9 15 12 12 3 -3 0 -11 -7 -18z m-631 -22
c14 -19 14 -19 -2 -6 -10 7 -18 18 -18 24 0 6 1 8 3 6 1 -2 9 -13 17 -24z
m240 0 c14 -19 14 -19 -2 -6 -10 7 -18 18 -18 24 0 6 1 8 3 6 1 -2 9 -13 17
-24z"/>
<path d="M2587 2125 c-83 -21 -127 -81 -127 -171 0 -68 26 -132 95 -237 81
-124 98 -168 93 -240 -4 -47 -9 -64 -27 -78 -28 -23 -94 -25 -133 -5 -31 16
-35 11 -34 -49 1 -38 2 -39 49 -54 90 -28 190 9 239 87 20 32 23 49 22 127 -1
106 -12 136 -100 270 -94 143 -109 193 -73 239 17 21 26 24 69 21 28 -2 55 -7
60 -10 6 -4 10 11 10 39 0 25 -4 47 -8 50 -27 17 -92 22 -135 11z"/>
<path d="M942 1710 l0 -420 59 0 59 0 0 420 0 420 -59 0 -59 0 0 -420z"/>
<path d="M1139 2053 c0 -95 0 -721 0 -745 1 -15 11 -18 61 -18 l60 0 2 302 3
301 29 -54 c16 -30 40 -71 54 -93 l24 -38 26 49 c44 80 77 133 82 133 3 0 5
-135 4 -300 l0 -300 58 0 58 0 0 420 0 420 -50 0 -49 0 -38 -66 c-21 -36 -49
-86 -62 -110 -13 -24 -26 -44 -30 -44 -6 0 -24 30 -97 160 -31 54 -32 55 -83
58 l-51 3 -1 -78z"/>
<path d="M1684 1713 l1 -418 60 0 60 0 -1 133 c0 72 2 132 6 133 3 0 23 3 45
5 180 18 287 124 287 284 0 183 -121 273 -377 279 l-82 2 1 -418z m236 295
c59 -31 80 -52 96 -93 20 -54 13 -119 -19 -166 -26 -38 -98 -78 -154 -86 l-39
-5 0 187 0 187 45 -5 c26 -3 57 -12 71 -19z"/>
<path d="M2190 1710 l0 -420 115 0 115 0 0 45 0 45 -58 0 -57 0 0 92 0 93 55
0 55 0 0 45 0 45 -40 1 c-22 1 -47 2 -55 3 -13 1 -16 27 -15 186 l0 184 55 3
55 3 3 48 3 47 -115 0 -116 0 0 -420z"/>
<path d="M2819 2113 c-3 -10 -4 -173 -3 -363 1 -311 3 -348 19 -380 23 -45 49
-67 94 -80 68 -19 139 -6 184 33 49 43 54 82 51 452 -1 187 -2 343 -3 348 0 4
-26 7 -56 7 l-55 0 0 -347 c0 -383 -2 -396 -56 -401 -59 -6 -59 -5 -60 387 l0
356 -56 3 c-47 2 -56 0 -59 -15z"/>
<path d="M3245 2118 c-2 -7 -3 -195 -2 -418 l2 -405 110 1 c121 0 159 13 229
74 35 31 84 106 91 138 2 9 10 44 17 77 8 33 14 92 12 130 -8 280 -137 415
-396 415 -38 0 -60 -4 -63 -12z m231 -123 c52 -40 83 -97 101 -187 14 -67 14
-94 5 -164 -21 -157 -85 -243 -194 -261 l-28 -4 0 327 0 327 40 -6 c23 -3 57
-17 76 -32z"/>
<path d="M950 1037 c0 -16 9 -28 27 -36 20 -9 23 -15 15 -23 -17 -17 -14 -33
3 -18 22 18 18 37 -10 56 -32 21 -32 32 3 37 25 4 25 4 -5 6 -28 1 -33 -2 -33
-22z"/>
<path d="M1030 1006 c0 -52 1 -54 25 -51 14 1 29 6 33 10 4 4 0 6 -8 5 -43 -6
-60 25 -17 33 l22 4 -22 2 c-16 1 -23 7 -23 20 0 12 8 21 23 24 19 4 18 4 -5
6 -27 1 -28 0 -28 -53z"/>
<path d="M1106 1010 c3 -54 14 -84 14 -37 0 15 5 27 10 27 6 0 10 -5 10 -11 0
-6 7 -17 15 -25 13 -14 15 -14 15 0 0 8 -5 18 -10 21 -6 4 -7 13 -2 23 15 31
8 47 -23 50 l-31 3 2 -51z m44 20 c0 -11 -7 -20 -15 -20 -8 0 -15 9 -15 20 0
11 7 20 15 20 8 0 15 -9 15 -20z"/>
<path d="M1193 1005 c0 -33 2 -45 4 -27 2 18 2 45 0 60 -2 15 -4 0 -4 -33z"/>
<path d="M1223 1008 c2 -40 6 -52 20 -54 9 -1 17 2 17 7 0 5 -4 9 -10 9 -20 0
-9 29 13 33 l22 4 -22 2 c-16 1 -23 7 -23 20 0 12 8 21 23 24 16 3 14 5 -10 6
l-32 1 2 -52z"/>
<path d="M1310 1050 c8 -5 16 -26 16 -47 2 -53 3 -55 12 -49 5 3 7 25 5 50 -3
36 0 45 14 49 10 3 0 5 -22 6 -29 0 -36 -2 -25 -9z"/>
<path d="M1405 1051 c-3 -6 -12 -29 -20 -53 -12 -34 -12 -39 -1 -25 18 24 43
21 57 -5 21 -40 20 -3 -1 45 -22 49 -25 53 -35 38z m11 -48 c-10 -10 -19 5
-10 18 6 11 8 11 12 0 2 -7 1 -15 -2 -18z"/>
<path d="M1548 1043 c-4 -18 7 -102 12 -93 2 3 4 23 6 45 3 56 3 55 13 55 15
0 22 -33 9 -42 -7 -4 -8 -8 -3 -8 26 0 37 17 26 39 -14 26 -57 29 -63 4z"/>
<path d="M1631 1003 c1 -56 1 -57 14 -29 l12 30 15 -29 c15 -28 15 -27 14 26
-1 51 -2 54 -28 57 -28 3 -28 3 -27 -55z m42 33 c6 -16 -1 -26 -19 -26 -10 0
-12 15 -5 38 3 8 20 0 24 -12z"/>
<path d="M1722 1048 c-22 -22 -14 -66 14 -85 26 -17 27 -16 50 10 23 27 23 46
1 75 -12 15 -49 16 -65 0z m59 -15 c8 -9 12 -19 11 -22 -2 -3 -8 -14 -13 -23
-13 -23 -45 -23 -51 0 -7 25 9 62 25 62 8 0 21 -7 28 -17z"/>
<path d="M1820 1003 c0 -39 3 -53 9 -43 6 8 7 18 5 22 -3 5 5 12 18 17 22 9
22 10 2 10 -28 1 -27 33 1 43 17 5 15 6 -7 7 -27 1 -28 0 -28 -56z"/>
<path d="M1899 1058 c-7 -17 -3 -90 5 -96 18 -11 46 -12 46 -2 0 6 -3 9 -7 9
-37 -6 -47 27 -10 34 l22 4 -23 2 c-29 1 -26 33 3 43 17 5 15 6 -7 7 -16 1
-28 0 -29 -1z"/>
<path d="M1973 1043 c-4 -11 3 -23 20 -37 34 -27 34 -36 0 -36 -23 -1 -25 -2
-11 -10 44 -26 66 28 22 56 -26 18 -23 29 11 37 15 3 13 5 -8 6 -17 1 -30 -5
-34 -16z"/>
<path d="M2052 1047 c-13 -15 -5 -30 26 -46 26 -14 21 -31 -9 -31 -11 0 -18
-4 -15 -9 4 -5 14 -8 24 -6 9 2 20 4 25 4 17 2 5 37 -20 57 l-28 23 25 10 c23
9 23 10 4 10 -12 1 -26 -5 -32 -12z"/>
<path d="M2126 1009 c3 -70 14 -75 14 -6 0 32 -4 57 -8 57 -4 0 -7 -23 -6 -51z"/>
<path d="M2171 1046 c-35 -42 22 -115 61 -79 21 18 24 63 6 81 -16 16 -53 15
-67 -2z m61 -21 c20 -44 -29 -77 -52 -35 -8 14 -8 26 0 40 15 27 38 25 52 -5z"/>
<path d="M2272 1003 c1 -53 2 -54 5 -14 l4 45 25 -42 c14 -23 27 -42 30 -42 2
0 3 26 3 58 -1 49 -3 52 -8 22 l-7 -35 -20 32 c-10 18 -22 33 -26 33 -5 0 -7
-26 -6 -57z"/>
<path d="M2393 1043 c-3 -10 -12 -33 -19 -50 -8 -20 -9 -35 -3 -38 5 -4 9 3 9
14 0 29 33 27 53 -1 23 -33 21 -3 -3 50 -21 46 -28 51 -37 25z m21 -28 c3 -9
0 -15 -9 -15 -9 0 -12 6 -9 15 4 8 7 15 9 15 2 0 5 -7 9 -15z"/>
<path d="M2470 1008 c0 -54 0 -54 29 -54 17 0 28 3 25 8 -3 5 -9 6 -14 3 -13
-8 -24 16 -25 52 0 17 -3 35 -7 39 -5 4 -8 -17 -8 -48z"/>
<path d="M2545 1011 c1 -47 14 -85 16 -48 4 62 2 91 -7 94 -6 2 -10 -17 -9
-46z"/>
<path d="M2591 1052 c11 -5 15 -19 14 -44 -1 -20 2 -43 6 -50 10 -15 11 -8 11
54 0 26 5 38 16 41 10 3 -1 5 -23 5 -23 0 -33 -2 -24 -6z"/>
<path d="M2679 1033 c-6 -16 -15 -41 -20 -58 -8 -29 -8 -30 8 -7 19 28 50 29
58 1 4 -11 9 -18 12 -15 7 7 -29 106 -39 106 -5 0 -13 -12 -19 -27z m24 -13
c3 -12 0 -20 -8 -20 -8 0 -11 8 -8 20 3 11 7 20 8 20 1 0 5 -9 8 -20z"/>
<path d="M2830 1011 c0 -28 4 -51 9 -51 4 0 7 20 5 45 -3 34 -1 45 10 45 19 0
27 -25 13 -40 -9 -10 -9 -11 3 -8 8 3 15 16 15 29 0 19 -6 25 -27 27 -27 3
-28 2 -28 -47z"/>
<path d="M2912 1015 c1 -50 11 -63 48 -60 22 1 25 6 27 53 2 29 -2 52 -7 52
-6 0 -10 -20 -10 -45 0 -37 -3 -45 -19 -45 -22 0 -27 12 -26 58 1 17 -2 32 -6
32 -5 0 -8 -20 -7 -45z"/>
<path d="M3009 1058 c-5 -15 -2 -101 3 -105 5 -2 9 15 9 39 1 24 3 35 6 26 2
-10 8 -18 12 -18 4 0 13 -12 20 -27 16 -35 28 -17 25 37 -2 53 -14 65 -14 14
l0 -39 -19 31 c-17 29 -39 50 -42 42z"/>
<path d="M3113 1053 c9 -2 17 -9 17 -14 0 -5 5 -9 11 -9 5 0 8 4 4 9 -3 5 5
12 17 14 13 2 3 4 -22 4 -25 1 -37 -1 -27 -4z"/>
<path d="M3194 1013 c1 -30 6 -48 15 -51 10 -3 12 0 8 12 -4 10 -7 33 -7 52 0
19 -4 34 -9 34 -4 0 -8 -21 -7 -47z"/>
<path d="M3252 1018 c1 -24 -3 -43 -10 -46 -19 -6 -14 -21 6 -18 13 2 17 14
19 54 1 29 -2 52 -7 52 -6 0 -9 -19 -8 -42z"/>
<path d="M3312 1033 c-6 -16 -14 -41 -17 -58 -5 -26 -4 -27 4 -7 6 12 18 22
27 22 8 0 25 -10 35 -22 20 -23 20 -23 3 17 -9 22 -18 48 -21 58 -8 25 -19 21
-31 -10z m22 -18 c3 -9 0 -15 -9 -15 -9 0 -12 6 -9 15 4 8 7 15 9 15 2 0 5 -7
9 -15z"/>
<path d="M3390 1011 c0 -36 4 -51 16 -55 12 -5 15 -2 10 10 -3 8 -6 33 -6 55
0 21 -4 39 -10 39 -5 0 -10 -22 -10 -49z"/>
<path d="M3470 1003 c0 -31 3 -53 8 -49 10 11 11 106 1 106 -5 0 -9 -25 -9
-57z"/>
<path d="M3513 1053 c13 -3 17 -15 17 -54 0 -28 4 -48 9 -44 5 3 8 21 6 40 -2
22 3 41 12 50 13 13 10 15 -24 14 -21 -1 -30 -3 -20 -6z"/>
<path d="M3603 1043 c-3 -10 -12 -33 -20 -52 -15 -38 -11 -54 7 -22 14 28 46
27 53 -1 4 -12 9 -20 12 -17 8 8 -26 109 -37 109 -5 0 -11 -8 -15 -17z m20
-23 c3 -12 0 -20 -8 -20 -8 0 -11 8 -8 20 3 11 7 20 8 20 1 0 5 -9 8 -20z"/>
<path d="M3130 996 c0 -14 4 -27 8 -30 5 -3 8 8 8 25 0 16 -3 29 -8 29 -4 0
-8 -11 -8 -24z"/>
<path d="M1478 957 c-3 -19 -2 -25 4 -19 6 6 8 18 6 28 -3 14 -5 12 -10 -9z"/>
<path d="M2760 961 c0 -25 6 -27 13 -6 4 8 2 17 -3 20 -6 4 -10 -3 -10 -14z"/>
<path d="M3681 964 c0 -11 3 -14 6 -6 3 7 2 16 -1 19 -3 4 -6 -2 -5 -13z"/>
<path d="M955 960 c3 -5 8 -10 11 -10 2 0 4 5 4 10 0 6 -5 10 -11 10 -5 0 -7
-4 -4 -10z"/>
<path d="M3430 960 c0 -5 5 -10 10 -10 6 0 10 5 10 10 0 6 -4 10 -10 10 -5 0
-10 -4 -10 -10z"/>
</g>
</svg>
